G04*
G04 #@! TF.GenerationSoftware,Altium Limited,Altium Designer,18.1.9 (240)*
G04*
G04 Layer_Physical_Order=1*
G04 Layer_Color=255*
%FSLAX24Y24*%
%MOIN*%
G70*
G01*
G75*
%ADD15C,0.0100*%
G04:AMPARAMS|DCode=16|XSize=66.9mil|YSize=45.3mil|CornerRadius=0mil|HoleSize=0mil|Usage=FLASHONLY|Rotation=225.000|XOffset=0mil|YOffset=0mil|HoleType=Round|Shape=Rectangle|*
%AMROTATEDRECTD16*
4,1,4,0.0077,0.0397,0.0397,0.0077,-0.0077,-0.0397,-0.0397,-0.0077,0.0077,0.0397,0.0*
%
%ADD16ROTATEDRECTD16*%

G04:AMPARAMS|DCode=17|XSize=157.5mil|YSize=275.6mil|CornerRadius=0mil|HoleSize=0mil|Usage=FLASHONLY|Rotation=45.000|XOffset=0mil|YOffset=0mil|HoleType=Round|Shape=Rectangle|*
%AMROTATEDRECTD17*
4,1,4,0.0418,-0.1531,-0.1531,0.0418,-0.0418,0.1531,0.1531,-0.0418,0.0418,-0.1531,0.0*
%
%ADD17ROTATEDRECTD17*%

G04:AMPARAMS|DCode=18|XSize=66.9mil|YSize=45.3mil|CornerRadius=0mil|HoleSize=0mil|Usage=FLASHONLY|Rotation=135.000|XOffset=0mil|YOffset=0mil|HoleType=Round|Shape=Rectangle|*
%AMROTATEDRECTD18*
4,1,4,0.0397,-0.0077,0.0077,-0.0397,-0.0397,0.0077,-0.0077,0.0397,0.0397,-0.0077,0.0*
%
%ADD18ROTATEDRECTD18*%

%ADD19R,0.0350X0.0402*%
%ADD20R,0.0453X0.0669*%
%ADD21R,0.0433X0.0571*%
%ADD22O,0.0138X0.0531*%
%ADD23R,0.0571X0.0551*%
%ADD24O,0.0094X0.0236*%
%ADD25O,0.0236X0.0094*%
%ADD43R,0.0961X0.0961*%
%ADD44C,0.0807*%
%ADD45C,0.0512*%
%ADD46C,0.0591*%
%ADD47R,0.0591X0.0591*%
%ADD48R,0.0591X0.0591*%
%ADD49C,0.0500*%
D15*
X21700Y34550D02*
X21950Y34300D01*
X19368Y34550D02*
X21700D01*
X19268Y34650D02*
X19368Y34550D01*
X18221Y35697D02*
X20315D01*
X18221Y33603D02*
X20315D01*
X22490Y23990D02*
X26100D01*
X30500Y19790D02*
X30530D01*
X2620Y17020D02*
Y17450D01*
X12352Y35643D02*
X12407Y35697D01*
X18221D01*
X24166Y35426D02*
Y35784D01*
X23200Y36750D02*
X24166Y35784D01*
X22700Y36750D02*
X23200D01*
X16350Y29700D02*
Y34750D01*
X12352Y28800D02*
Y35643D01*
X18221Y33603D02*
Y35697D01*
X20783Y18290D02*
X21370D01*
X21650Y17200D02*
Y17410D01*
X22050Y16585D02*
X23220Y17755D01*
X21795Y18599D02*
X22050Y18344D01*
Y16585D02*
Y18344D01*
X21800Y16335D02*
X22050Y16585D01*
X21039Y16601D02*
Y17299D01*
Y16601D02*
X21190Y16450D01*
X21039Y17299D02*
X21500Y17760D01*
X21190Y16450D02*
X21190Y2290D01*
X26660Y19750D02*
X27370D01*
X20389Y18509D02*
X20670Y18790D01*
X27000Y24100D02*
X27340D01*
X24621Y26479D02*
X27000Y24100D01*
X24621Y26479D02*
Y26590D01*
X12352Y28695D02*
Y28800D01*
Y28480D02*
Y28695D01*
X12244Y28588D02*
X12352Y28695D01*
X12244Y28588D02*
X12352Y28480D01*
X14950Y16240D02*
Y18495D01*
X18439Y16159D02*
Y18617D01*
X21800Y1800D02*
Y16335D01*
X21059Y20783D02*
Y21760D01*
X24934Y33160D02*
Y33674D01*
Y32856D02*
Y33160D01*
X26100Y23030D02*
Y23990D01*
X30530Y14300D02*
Y15040D01*
X12352Y27329D02*
Y28480D01*
X7350Y24470D02*
Y24960D01*
X2550Y12800D02*
X3130D01*
X14600Y14410D02*
X17798Y11212D01*
Y11350D01*
Y9800D02*
Y11212D01*
X10610Y17850D02*
X11400D01*
X7924D02*
X10610D01*
X17040Y21830D02*
Y28280D01*
X26370Y27950D02*
X27730Y26590D01*
X24166Y27045D02*
Y28424D01*
X24621Y26590D02*
X27730D01*
X23110D02*
X24621D01*
X24166Y27045D02*
X24621Y26590D01*
X27370Y19750D02*
Y21900D01*
X20131Y19640D02*
X20610D01*
X20389Y18509D02*
Y18559D01*
X13224Y23360D02*
X13910D01*
X26562Y9750D02*
X26770D01*
X24934Y35230D02*
X29490D01*
X30480Y26290D02*
X30872D01*
X26750Y26200D02*
X27370D01*
X26990Y9850D02*
Y10940D01*
X13100Y28730D02*
X13750D01*
X13120Y12500D02*
X15910D01*
X12850D02*
X13120D01*
X23400Y27990D02*
Y28600D01*
X21650Y1750D02*
Y17410D01*
X20250Y1350D02*
X21190Y2290D01*
X16330Y18520D02*
X17710Y17140D01*
X16330Y18520D02*
Y20345D01*
X16180Y20495D02*
X16330Y20345D01*
X16180Y20495D02*
Y21600D01*
X16260Y21680D01*
X16810D01*
X16890Y21600D01*
Y20695D02*
Y21600D01*
X16717Y20521D02*
X16890Y20695D01*
X16717Y19280D02*
Y20521D01*
Y19280D02*
X16797Y19200D01*
X17648D01*
X17852Y19405D01*
X18361D01*
X18237Y18814D02*
X18361D01*
X18143Y18720D02*
X18237Y18814D01*
X18143Y16960D02*
Y18720D01*
X17964Y16780D02*
X18143Y16960D01*
X16665Y16780D02*
X17964D01*
X14950Y18495D02*
X16665Y16780D01*
X14950Y18495D02*
Y23060D01*
X18439Y16159D02*
X19748Y14850D01*
X18361Y18617D02*
X18439D01*
X19395Y15815D02*
X19725Y15485D01*
X19395Y15815D02*
Y17390D01*
X19011Y17774D02*
X19395Y17390D01*
X19011Y17774D02*
Y18361D01*
X19798D02*
Y18518D01*
X20060Y18780D01*
X16105Y18165D02*
X16430Y17840D01*
X16105Y18165D02*
Y19795D01*
X15450Y20450D02*
X16105Y19795D01*
X20810Y17600D02*
X21150Y17940D01*
X20350Y17600D02*
X20810D01*
X20192Y17758D02*
X20350Y17600D01*
X20192Y17758D02*
Y18361D01*
X23220Y18970D02*
X23540Y19290D01*
X23220Y17755D02*
Y18970D01*
X23800Y21970D02*
X24040Y21730D01*
Y16850D02*
Y21730D01*
X22630Y15440D02*
X24040Y16850D01*
X22630Y1970D02*
Y15440D01*
Y1970D02*
X23250Y1350D01*
X21619Y19011D02*
X21680Y18950D01*
X21039Y19011D02*
X21619D01*
X22070Y19300D02*
X22400Y18970D01*
X21325Y19300D02*
X22070D01*
X21233Y19208D02*
X21325Y19300D01*
X21039Y19208D02*
X21233D01*
X22835Y17910D02*
Y19395D01*
X22780Y19450D02*
X22835Y19395D01*
X21225Y19450D02*
X22780D01*
X21180Y19405D02*
X21225Y19450D01*
X21039Y19405D02*
X21180D01*
X23150Y17150D02*
X23890Y17890D01*
Y19640D01*
X23690Y19840D02*
X23890Y19640D01*
X21673Y19840D02*
X23690D01*
X21435Y19602D02*
X21673Y19840D01*
X21039Y19602D02*
X21435D01*
X21039Y19798D02*
X21360D01*
X21882Y20320D01*
X22060D01*
X21039Y20783D02*
X21059D01*
Y21760D02*
X21257Y21958D01*
X22740D01*
X3620Y21950D02*
X4750Y23080D01*
X2880Y21950D02*
X3620D01*
X2550Y21620D02*
X2880Y21950D01*
X2550Y18240D02*
Y21620D01*
Y18240D02*
X2880Y17910D01*
X3200D01*
X3350Y17760D01*
Y16850D02*
Y17760D01*
X2950Y16450D02*
X3350Y16850D01*
X21480Y22740D02*
X22740D01*
X20890Y22150D02*
X21480Y22740D01*
X20890Y21317D02*
Y22150D01*
X20783Y21210D02*
X20890Y21317D01*
X20783Y21039D02*
Y21210D01*
X20586Y21039D02*
Y21260D01*
X20739Y21413D01*
Y21851D01*
X20010Y22580D02*
X20739Y21851D01*
X18400Y22580D02*
X20010D01*
X18220Y22400D02*
X18400Y22580D01*
X18220Y21800D02*
Y22400D01*
Y21800D02*
X18410Y21610D01*
X20389Y21039D02*
Y21621D01*
X20192Y20460D02*
Y21039D01*
X19674Y21840D02*
X19798Y21716D01*
Y21039D02*
Y21716D01*
X9223Y3684D02*
Y4300D01*
Y3684D02*
X11557Y1350D01*
X14250D01*
X11983Y26960D02*
X12352Y27329D01*
X11983Y25500D02*
Y26960D01*
X26130Y13350D02*
X26610Y13830D01*
X29820D01*
X30500Y13150D01*
Y12060D02*
Y13150D01*
Y12060D02*
X30530Y10900D01*
X30500Y13150D02*
X30530Y14300D01*
X30500Y16560D02*
Y17650D01*
Y16560D02*
X30530Y15400D01*
X26100Y23030D02*
X26130Y21900D01*
X24934Y32856D02*
X29080Y28710D01*
Y25255D02*
Y28710D01*
Y25255D02*
X30860Y23475D01*
Y20230D02*
Y23475D01*
X30530Y19900D02*
X30860Y20230D01*
X7919Y19390D02*
Y21650D01*
Y19390D02*
X7944Y19365D01*
X8600D01*
Y19930D01*
X8960Y20290D01*
X12420D01*
X12550Y20160D01*
Y19360D02*
Y20160D01*
X12120Y19360D02*
X12550D01*
X10610Y17850D02*
X12120Y19360D01*
X8220Y12800D02*
Y14070D01*
X8220Y14070D02*
X8220Y14070D01*
X17220Y19700D02*
X17318Y19798D01*
X18361D01*
X17220Y19700D02*
Y19970D01*
X17190Y20000D02*
X17220Y19970D01*
X17190Y20000D02*
Y27680D01*
X18260Y28750D01*
X17040Y28280D02*
Y28750D01*
X14260Y25500D02*
X17040Y28280D01*
X13224Y25500D02*
X14260D01*
X31770Y19520D02*
Y19900D01*
Y19520D02*
X32110Y19180D01*
X34090D01*
X34590Y18680D01*
Y17950D02*
Y18680D01*
X34290Y17650D02*
X34590Y17950D01*
X31740Y17650D02*
X34290D01*
X30530Y22150D02*
Y23021D01*
X24640Y27950D02*
X26370D01*
X24166Y28424D02*
X24640Y27950D01*
X24166Y28424D02*
Y33674D01*
X8098Y25948D02*
X8740Y26590D01*
X8098Y25550D02*
Y25948D01*
X28930Y24621D02*
X30530Y23021D01*
X28930Y24621D02*
Y25390D01*
X27730Y26590D02*
X28930Y25390D01*
X12620Y24019D02*
Y26590D01*
Y24019D02*
X12879Y23760D01*
Y23081D02*
Y23760D01*
Y23081D02*
X13546Y22414D01*
Y15536D02*
Y22414D01*
X13250Y15240D02*
X13546Y15536D01*
X13250Y14250D02*
Y15240D01*
X19405Y19705D02*
Y19840D01*
X18617Y18917D02*
X19405Y19705D01*
X18617Y18361D02*
Y18917D01*
X19011Y21039D02*
Y21291D01*
X19180Y21460D01*
X10440Y4400D02*
Y14940D01*
Y4400D02*
X10900Y4300D01*
X9223Y6300D02*
Y10350D01*
X24390Y14630D02*
Y22800D01*
X23829Y23361D02*
X24390Y22800D01*
X18835Y23361D02*
X23829D01*
X17950Y22476D02*
X18835Y23361D01*
X17950Y21390D02*
Y22476D01*
Y21390D02*
X18080Y21260D01*
X18720D01*
X18814Y21039D01*
X26562Y9750D02*
Y9850D01*
X26770Y9750D02*
X29380Y7140D01*
Y3520D02*
Y7140D01*
X28870Y3010D02*
X29380Y3520D01*
X27290Y3010D02*
X28870D01*
X22950Y7350D02*
X27290Y3010D01*
X22950Y7350D02*
Y9800D01*
X27370Y12640D02*
Y13350D01*
X27200Y12470D02*
X27370Y12640D01*
X27200Y11600D02*
Y12470D01*
X24934Y35230D02*
Y35426D01*
X29490Y35230D02*
X34440Y30280D01*
Y25190D02*
Y30280D01*
X33600Y24350D02*
X34440Y25190D01*
X31469Y24350D02*
X33600D01*
X27370Y25730D02*
Y26150D01*
Y25730D02*
X27700Y25400D01*
Y19220D02*
Y25400D01*
X26740Y18260D02*
X27700Y19220D01*
X26740Y15430D02*
Y18260D01*
X25800Y14490D02*
X26740Y15430D01*
X25800Y12940D02*
Y14490D01*
Y12940D02*
X26770Y11970D01*
Y11160D02*
Y11970D01*
Y11160D02*
X26990Y10940D01*
Y9850D02*
X27200D01*
X7030Y19800D02*
X7615Y19215D01*
X11691D01*
X12226Y19750D01*
X30850Y7100D02*
Y9610D01*
X31770Y10530D01*
Y10900D01*
X15910Y12500D02*
X16250Y12160D01*
Y1350D02*
Y12160D01*
X13120Y12500D02*
X13730Y13110D01*
Y13350D01*
X36050Y22950D02*
X36150Y15050D01*
X35550Y14450D02*
X36150Y15050D01*
X22760Y25700D02*
Y27350D01*
X21039Y20586D02*
X21257D01*
Y21610D01*
X21447Y21800D01*
X22320D01*
X22512Y21608D01*
X23040D01*
X23120Y21688D01*
Y22490D01*
X23640Y23010D01*
X22760Y27350D02*
X23400Y27990D01*
X20783Y18290D02*
Y18361D01*
X21370Y18290D02*
X21500Y18160D01*
Y17760D02*
Y18160D01*
X21190Y2290D02*
Y16450D01*
X1405Y19995D02*
Y22575D01*
X1880Y23050D01*
X24422Y29518D02*
X24880Y29060D01*
X24422Y29518D02*
Y33674D01*
X30327Y31223D02*
X33053D01*
X33977Y30299D01*
Y27823D02*
Y30299D01*
X33100Y27780D02*
Y28700D01*
X31720Y26400D02*
X33100Y27780D01*
X30480Y26290D02*
Y26400D01*
X30872Y26290D02*
X31244Y25919D01*
Y24350D02*
Y25919D01*
Y24350D02*
X31469D01*
X36550Y15450D02*
X36950Y15050D01*
Y14080D02*
Y15050D01*
X36775Y13905D02*
X36950Y14080D01*
X31665Y13905D02*
X36775D01*
X30530Y15040D02*
X31665Y13905D01*
X30530Y15040D02*
Y15400D01*
X36155Y14055D02*
X36550Y14450D01*
X31885Y14055D02*
X36155D01*
X31410Y14530D02*
X31885Y14055D01*
X31410Y14530D02*
Y23137D01*
X30150Y24397D02*
X31410Y23137D01*
X30150Y24397D02*
Y26920D01*
X30240Y27010D01*
X31040D01*
X31390Y26660D01*
Y25960D02*
Y26660D01*
Y25960D02*
X33390D01*
X33540Y26110D01*
Y29130D01*
X32960Y29710D02*
X33540Y29130D01*
X29820Y29710D02*
X32960D01*
X29450Y30080D02*
X29820Y29710D01*
X29450Y30080D02*
Y32100D01*
X27250Y28550D02*
Y30238D01*
X24678Y32810D02*
X27250Y30238D01*
X24678Y32810D02*
Y33674D01*
X20019Y19280D02*
X20320D01*
X19405Y18665D02*
X20019Y19280D01*
X19405Y18361D02*
Y18665D01*
X31770Y19900D02*
X32260D01*
X32280Y19880D01*
X27370Y19650D02*
Y19750D01*
X31770Y22150D02*
X33030D01*
X33830Y22950D01*
X36050D01*
X36550Y23450D01*
X17250Y1350D02*
X20140Y4240D01*
Y15890D01*
X20410Y16160D01*
Y16640D01*
X19695Y17355D02*
X20410Y16640D01*
X19695Y17355D02*
Y17696D01*
X19602Y17789D02*
X19695Y17696D01*
X19602Y17789D02*
Y18361D01*
X19798Y18112D02*
Y18361D01*
Y18112D02*
X19845Y18065D01*
Y17443D02*
Y18065D01*
Y17443D02*
X20594Y16695D01*
Y16014D02*
Y16695D01*
X20290Y15710D02*
X20594Y16014D01*
X20290Y3390D02*
Y15710D01*
X18250Y1350D02*
X20290Y3390D01*
X20640Y15390D02*
X20800Y15550D01*
Y16845D01*
X19995Y17650D02*
X20800Y16845D01*
X19995Y17650D02*
Y18361D01*
X9650Y25230D02*
Y32250D01*
X19995Y21039D02*
Y21461D01*
X20024Y21490D01*
Y22006D01*
X19800Y22230D02*
X20024Y22006D01*
X18570Y22230D02*
X19800D01*
X19545Y16835D02*
X20060Y16320D01*
X19545Y16835D02*
Y17473D01*
X19208Y17810D02*
X19545Y17473D01*
X19208Y17810D02*
Y18361D01*
X25490Y30760D02*
X26010Y30240D01*
Y28550D02*
Y30240D01*
X7947Y14750D02*
Y15117D01*
X8150Y15320D01*
Y17624D01*
X7924Y17850D02*
X8150Y17624D01*
X7176Y17273D02*
Y17850D01*
Y17273D02*
X7869Y16580D01*
Y16300D02*
Y16580D01*
X13100Y28730D02*
Y28800D01*
X27370Y26150D02*
Y26200D01*
X30831Y24350D02*
X30880D01*
X31190Y24040D01*
X36980D01*
X37100Y23920D01*
Y10520D02*
Y23920D01*
X32370Y5790D02*
X37100Y10520D01*
X30080Y5790D02*
X32370D01*
X29540Y6330D02*
X30080Y5790D01*
X29540Y6330D02*
Y8390D01*
X27200Y10730D02*
X29540Y8390D01*
X27200Y10730D02*
Y11600D01*
X21039Y20192D02*
X21128D01*
X21407Y20471D01*
Y21487D01*
X21552Y21632D01*
X22118D01*
X22292Y21458D01*
X23200D01*
X23290Y21548D01*
Y22170D01*
X23670Y22550D01*
X24000D01*
X24190Y22360D01*
Y15130D02*
Y22360D01*
X24040Y14980D02*
X24190Y15130D01*
X24040Y11330D02*
Y14980D01*
Y11330D02*
X28066Y7304D01*
Y4316D02*
Y7304D01*
X22202Y9800D02*
Y11752D01*
X22280Y11830D01*
X27370Y14440D02*
Y15850D01*
X26130Y17700D02*
X26381D01*
X26130D02*
Y19650D01*
Y15850D02*
Y16310D01*
X24920Y17520D02*
X26130Y16310D01*
X24920Y17520D02*
Y22670D01*
X24079Y23511D02*
X24920Y22670D01*
X18381Y23511D02*
X24079D01*
X17800Y22930D02*
X18381Y23511D01*
X17800Y21030D02*
Y22930D01*
Y21030D02*
X18048Y20783D01*
X18361D01*
X24934Y33160D02*
X29394Y28700D01*
X33100D01*
X1405Y19995D02*
X1950Y19450D01*
X1880Y23050D02*
X3350D01*
X6210Y25910D01*
X19602Y20148D02*
X19760Y19990D01*
X19602Y20148D02*
Y21039D01*
X7350Y24960D02*
Y25550D01*
X6910Y24520D02*
X7350Y24960D01*
X5440Y24520D02*
X6910D01*
X3770Y22850D02*
X5440Y24520D01*
X2720Y22850D02*
X3770D01*
X2350Y22480D02*
X2720Y22850D01*
X2350Y13000D02*
Y22480D01*
Y13000D02*
X2550Y12800D01*
X11080Y17450D02*
X11980Y16550D01*
Y16250D02*
Y16550D01*
X17050Y4150D02*
Y9800D01*
X21039Y19995D02*
X21235D01*
X21890Y20650D01*
Y21170D01*
X18930Y20430D02*
X19140Y20220D01*
Y19670D02*
Y20220D01*
X18481Y19011D02*
X19140Y19670D01*
X18361Y19011D02*
X18481D01*
X26130Y25660D02*
Y26150D01*
Y25660D02*
X26740Y25050D01*
X18580Y20070D02*
X18780Y19870D01*
X18580Y20070D02*
Y20486D01*
X18480Y20586D02*
X18580Y20486D01*
X18361Y20586D02*
X18480D01*
X17795Y19995D02*
X18361D01*
X17540Y20250D02*
X17795Y19995D01*
X6700Y18520D02*
Y21310D01*
X7040Y21650D01*
X7281D01*
X13224Y23360D02*
Y23450D01*
X13910Y23360D02*
X14070Y23200D01*
Y16820D02*
Y23200D01*
X20586Y17950D02*
Y18361D01*
X19405Y19840D02*
Y21039D01*
X19605Y19640D02*
X20131D01*
X20880Y20389D01*
X21039D01*
X16660Y760D02*
X17250Y1350D01*
X15270Y760D02*
X16660D01*
X14750Y1280D02*
X15270Y760D01*
X14750Y1280D02*
Y2550D01*
X13550Y3750D02*
X14750Y2550D01*
X10560Y3750D02*
X13550D01*
X7430Y6880D02*
X10560Y3750D01*
X7430Y6880D02*
Y13420D01*
X6880Y13970D02*
X7430Y13420D01*
X6880Y13970D02*
Y14520D01*
X2950Y18450D02*
X6880Y14520D01*
X18814Y17346D02*
Y18361D01*
Y17346D02*
X18920Y17240D01*
X21650Y17410D02*
Y18260D01*
X21461Y18449D02*
X21650Y18260D01*
X21343Y18449D02*
X21461D01*
X21039Y18617D02*
X21175D01*
X20389Y18559D02*
X20610Y18780D01*
X17818Y19602D02*
X18361D01*
X17567Y19350D02*
X17818Y19602D01*
X17037Y19350D02*
X17567D01*
X16867Y19520D02*
X17037Y19350D01*
X16867Y19520D02*
Y20198D01*
X17040Y20371D01*
Y21830D01*
X17040Y21830D02*
X17040Y21830D01*
X18178Y20192D02*
X18361D01*
X17500Y20870D02*
X18178Y20192D01*
X17500Y20870D02*
Y24280D01*
X17540Y24320D01*
X12520Y22660D02*
Y23410D01*
Y22660D02*
X12650Y22530D01*
Y19100D02*
Y22530D01*
X11400Y17850D02*
X12650Y19100D01*
X18211Y20389D02*
X18361D01*
X17650Y20950D02*
X18211Y20389D01*
X17650Y20950D02*
Y23560D01*
X18070Y23980D01*
X14600Y14410D02*
Y23920D01*
X21800Y1800D02*
X22250Y1350D01*
X21446Y18599D02*
X21795D01*
X21231Y18814D02*
X21446Y18599D01*
X21039Y18814D02*
X21231D01*
X21250Y1350D02*
X21650Y1750D01*
X21175Y18617D02*
X21343Y18449D01*
X7199Y14370D02*
Y14750D01*
Y14370D02*
X7650Y13919D01*
Y12240D02*
Y13919D01*
Y12240D02*
X8540Y11350D01*
X13250Y9800D02*
Y11340D01*
X12570Y12020D02*
X13250Y11340D01*
X12570Y12020D02*
Y12810D01*
X14420Y14660D01*
Y23100D01*
X12890Y24630D02*
X14420Y23100D01*
X12890Y24630D02*
Y26240D01*
X16350Y29700D01*
X16530Y19160D02*
Y21330D01*
Y19160D02*
X16640Y19050D01*
X18062D01*
X18220Y19208D01*
X18361D01*
X20389Y18361D02*
Y18509D01*
X20670Y18790D02*
Y19580D01*
X20610Y19640D02*
X20670Y19580D01*
X19405Y19840D02*
X19605Y19640D01*
X19208Y20908D02*
Y21039D01*
X19120Y20820D02*
X19208Y20908D01*
X18617Y20820D02*
X19120D01*
X18617D02*
Y21039D01*
X12212Y12500D02*
Y12722D01*
X13250Y13760D01*
Y14250D01*
X13220Y15430D02*
Y16250D01*
X12630Y14840D02*
X13220Y15430D01*
X12630Y14010D02*
Y14840D01*
X11930Y13310D02*
X12630Y14010D01*
X11930Y10350D02*
Y13310D01*
Y10350D02*
X12010Y10270D01*
Y9800D02*
Y10270D01*
X12974Y19148D02*
Y19750D01*
X12226Y18400D02*
X12974Y19148D01*
X12226Y17800D02*
Y18400D01*
X30530Y19790D02*
Y19900D01*
X30500Y17650D02*
Y19790D01*
X2620Y17450D02*
X2950D01*
X2550Y16950D02*
X2620Y17020D01*
X2550Y13380D02*
Y16950D01*
Y13380D02*
X3130Y12800D01*
X6980D01*
X8773Y29380D02*
Y31373D01*
X8320Y28927D02*
X8773Y29380D01*
X6127Y28927D02*
X8320D01*
X22160Y24320D02*
Y28600D01*
Y24320D02*
X22490Y23990D01*
X26100D02*
Y24100D01*
X5250Y27650D02*
X7350Y25550D01*
X5250Y27650D02*
Y28050D01*
X7350Y24470D02*
X8320Y23500D01*
X22160Y28600D02*
Y31758D01*
X20315Y33603D02*
X22160Y31758D01*
X8240Y4300D02*
X9223D01*
X6980Y5560D02*
X8240Y4300D01*
X6980Y5560D02*
Y12800D01*
X12212Y11420D02*
Y12500D01*
Y11420D02*
X12340Y11292D01*
Y7440D02*
Y11292D01*
X11200Y6300D02*
X12340Y7440D01*
X10900Y6300D02*
X11200D01*
X24422Y35120D02*
Y35426D01*
X24334Y35032D02*
X24422Y35120D01*
X20981Y35032D02*
X24334D01*
X20315Y35697D02*
X20981Y35032D01*
X11980Y15260D02*
Y16250D01*
Y15260D02*
X12010Y15230D01*
Y14250D02*
Y15230D01*
X8320Y21670D02*
Y23500D01*
X8270Y21620D02*
X8320Y21670D01*
X8270Y19800D02*
Y21620D01*
X10170Y23450D02*
X11983D01*
X10120Y23500D02*
X10170Y23450D01*
X8320Y23500D02*
X10120D01*
X11983Y22643D02*
Y23450D01*
Y22643D02*
X12226Y22400D01*
Y21600D02*
Y22400D01*
X11983Y23450D02*
Y25500D01*
X24678Y34676D02*
Y35426D01*
Y34676D02*
X24934Y34420D01*
Y33674D02*
Y34420D01*
X24422Y35426D02*
X24678D01*
X26130Y19650D02*
Y21900D01*
X7231Y15532D02*
Y16300D01*
X7199Y15500D02*
X7231Y15532D01*
X7199Y14750D02*
Y15500D01*
X27340Y23010D02*
Y24100D01*
Y23010D02*
X27370Y22980D01*
Y21900D02*
Y22980D01*
X31740Y16540D02*
Y17650D01*
Y16540D02*
X31770Y16510D01*
Y15400D02*
Y16510D01*
X27019Y16941D02*
Y17700D01*
Y16941D02*
X27370Y16590D01*
Y15850D02*
Y16590D01*
X26452Y10770D02*
Y11600D01*
Y10770D02*
X26562Y10660D01*
Y9850D02*
Y10660D01*
X7030Y18896D02*
Y19800D01*
Y18896D02*
X7176Y18750D01*
Y17850D02*
Y18750D01*
X12974Y19750D02*
Y21600D01*
Y17146D02*
Y17800D01*
Y17146D02*
X13220Y16900D01*
Y16250D02*
Y16900D01*
X31740Y12040D02*
Y13150D01*
Y12040D02*
X31770Y12010D01*
Y10900D02*
Y12010D01*
X7080Y22671D02*
Y23500D01*
Y22671D02*
X7281Y22470D01*
Y21650D02*
Y22470D01*
D16*
X33100Y28700D02*
D03*
X33977Y27823D02*
D03*
X29450Y32100D02*
D03*
X30327Y31223D02*
D03*
D17*
X28066Y4316D02*
D03*
X30850Y7100D02*
D03*
D18*
X9650Y32250D02*
D03*
X8773Y31373D02*
D03*
X5250Y28050D02*
D03*
X6127Y28927D02*
D03*
D19*
X27019Y17700D02*
D03*
X26381D02*
D03*
X27200Y9850D02*
D03*
X26562D02*
D03*
X30831Y24350D02*
D03*
X31469D02*
D03*
X12850Y12500D02*
D03*
X12212D02*
D03*
X7231Y16300D02*
D03*
X7869D02*
D03*
X7919Y21650D02*
D03*
X7281D02*
D03*
D20*
X13220Y16250D02*
D03*
X11980D02*
D03*
X30530Y22150D02*
D03*
X31770D02*
D03*
X30530Y19900D02*
D03*
X31770D02*
D03*
X26130Y19650D02*
D03*
X27370D02*
D03*
X26010Y28550D02*
D03*
X27250D02*
D03*
X30530Y10900D02*
D03*
X31770D02*
D03*
X30530Y15400D02*
D03*
X31770D02*
D03*
X12010Y14250D02*
D03*
X13250D02*
D03*
X26130Y21900D02*
D03*
X27370D02*
D03*
X6980Y12800D02*
D03*
X8220D02*
D03*
X13250Y9800D02*
D03*
X12010D02*
D03*
X7030Y19800D02*
D03*
X8270D02*
D03*
X8320Y23500D02*
D03*
X7080D02*
D03*
X27370Y26150D02*
D03*
X26130D02*
D03*
X30480Y26400D02*
D03*
X31720D02*
D03*
X27370Y13350D02*
D03*
X26130D02*
D03*
X27370Y15850D02*
D03*
X26130D02*
D03*
X11983Y25500D02*
D03*
X13224D02*
D03*
X26100Y24100D02*
D03*
X27340D02*
D03*
X11983Y23450D02*
D03*
X13224D02*
D03*
X30500Y13150D02*
D03*
X31740D02*
D03*
X22160Y28600D02*
D03*
X23400D02*
D03*
X30500Y17650D02*
D03*
X31740D02*
D03*
D21*
X12974Y17800D02*
D03*
X12226D02*
D03*
X12974Y19750D02*
D03*
X12226D02*
D03*
X12974Y21600D02*
D03*
X12226D02*
D03*
X13100Y28800D02*
D03*
X12352D02*
D03*
X22950Y9800D02*
D03*
X22202D02*
D03*
X27200Y11600D02*
D03*
X26452D02*
D03*
X7199Y14750D02*
D03*
X7947D02*
D03*
X17798Y9800D02*
D03*
X17050D02*
D03*
X7176Y17850D02*
D03*
X7924D02*
D03*
X7350Y25550D02*
D03*
X8098D02*
D03*
D22*
X24166Y33674D02*
D03*
X24422D02*
D03*
X24678D02*
D03*
X24934D02*
D03*
X24166Y35426D02*
D03*
X24422D02*
D03*
X24678D02*
D03*
X24934D02*
D03*
D23*
X10900Y4300D02*
D03*
Y6300D02*
D03*
X9223Y4300D02*
D03*
Y6300D02*
D03*
D24*
X18617Y21039D02*
D03*
X18814D02*
D03*
X19011D02*
D03*
X19208D02*
D03*
X19405D02*
D03*
X19602D02*
D03*
X19798D02*
D03*
X19995D02*
D03*
X20192D02*
D03*
X20389D02*
D03*
X20586D02*
D03*
X20783D02*
D03*
Y18361D02*
D03*
X20586D02*
D03*
X20389D02*
D03*
X20192D02*
D03*
X19995D02*
D03*
X19798D02*
D03*
X19602D02*
D03*
X19405D02*
D03*
X19208D02*
D03*
X19011D02*
D03*
X18814D02*
D03*
X18617D02*
D03*
D25*
X21039Y20783D02*
D03*
Y20586D02*
D03*
Y20389D02*
D03*
Y20192D02*
D03*
Y19995D02*
D03*
Y19798D02*
D03*
Y19602D02*
D03*
Y19405D02*
D03*
Y19208D02*
D03*
Y19011D02*
D03*
Y18814D02*
D03*
Y18617D02*
D03*
X18361D02*
D03*
Y18814D02*
D03*
Y19011D02*
D03*
Y19208D02*
D03*
Y19405D02*
D03*
Y19602D02*
D03*
Y19798D02*
D03*
Y19995D02*
D03*
Y20192D02*
D03*
Y20389D02*
D03*
Y20586D02*
D03*
Y20783D02*
D03*
D43*
X18221Y33603D02*
D03*
Y35697D02*
D03*
X20315Y33603D02*
D03*
Y35697D02*
D03*
D44*
X19268Y34650D02*
D03*
D45*
X18260Y28750D02*
D03*
X17040D02*
D03*
D46*
X14250Y1350D02*
D03*
X15250D02*
D03*
X16250D02*
D03*
X17250D02*
D03*
X18250D02*
D03*
X19250D02*
D03*
X20250D02*
D03*
X21250D02*
D03*
X22250D02*
D03*
X23250D02*
D03*
X35550Y23450D02*
D03*
Y22450D02*
D03*
Y21450D02*
D03*
Y20450D02*
D03*
Y19450D02*
D03*
Y18450D02*
D03*
Y17450D02*
D03*
Y16450D02*
D03*
Y15450D02*
D03*
Y14450D02*
D03*
X36550Y23450D02*
D03*
Y22450D02*
D03*
Y21450D02*
D03*
Y20450D02*
D03*
Y19450D02*
D03*
Y18450D02*
D03*
Y17450D02*
D03*
Y16450D02*
D03*
Y15450D02*
D03*
X1950Y23450D02*
D03*
Y22450D02*
D03*
Y21450D02*
D03*
Y20450D02*
D03*
Y19450D02*
D03*
Y18450D02*
D03*
Y17450D02*
D03*
Y16450D02*
D03*
Y15450D02*
D03*
Y14450D02*
D03*
X2950Y23450D02*
D03*
Y22450D02*
D03*
Y21450D02*
D03*
Y20450D02*
D03*
Y19450D02*
D03*
Y18450D02*
D03*
Y17450D02*
D03*
Y16450D02*
D03*
Y15450D02*
D03*
D47*
X24250Y1350D02*
D03*
D48*
X36550Y14450D02*
D03*
X2950D02*
D03*
D49*
X21950Y34300D02*
D03*
X22700Y36750D02*
D03*
X16350Y34750D02*
D03*
X21650Y17200D02*
D03*
X17710Y17140D02*
D03*
X9650Y25230D02*
D03*
X19748Y14850D02*
D03*
X19725Y15485D02*
D03*
X20060Y18780D02*
D03*
X16430Y17840D02*
D03*
X15450Y20450D02*
D03*
X21150Y17940D02*
D03*
X23540Y19290D02*
D03*
X23800Y21970D02*
D03*
X21680Y18950D02*
D03*
X22400Y18970D02*
D03*
X22835Y17910D02*
D03*
X23150Y17150D02*
D03*
X22060Y20320D02*
D03*
X22740Y21958D02*
D03*
X4750Y23080D02*
D03*
X22740Y22740D02*
D03*
X18410Y21610D02*
D03*
X20389Y21621D02*
D03*
X20192Y20460D02*
D03*
X19674Y21840D02*
D03*
X8220Y14070D02*
D03*
X17220Y19700D02*
D03*
X23110Y26590D02*
D03*
X8740D02*
D03*
X12620D02*
D03*
X19180Y21460D02*
D03*
X10440Y14940D02*
D03*
X9223Y10350D02*
D03*
X24390Y14630D02*
D03*
X13730Y13350D02*
D03*
X23640Y23010D02*
D03*
X22760Y25700D02*
D03*
X21190Y16450D02*
D03*
X6210Y25910D02*
D03*
X24880Y29060D02*
D03*
X20320Y19280D02*
D03*
X32280Y19880D02*
D03*
X20640Y15390D02*
D03*
X14950Y23060D02*
D03*
Y16240D02*
D03*
X18570Y22230D02*
D03*
X20060Y16320D02*
D03*
X25490Y30760D02*
D03*
X13750Y28730D02*
D03*
X26750Y26200D02*
D03*
X22280Y11830D02*
D03*
X27370Y14440D02*
D03*
X19760Y19990D02*
D03*
X11080Y17450D02*
D03*
X17050Y4150D02*
D03*
X21890Y21170D02*
D03*
X18930Y20430D02*
D03*
X26740Y25050D02*
D03*
X18780Y19870D02*
D03*
X17540Y20250D02*
D03*
X6700Y18520D02*
D03*
X14070Y16820D02*
D03*
X20586Y17950D02*
D03*
X18920Y17240D02*
D03*
X26660Y19750D02*
D03*
X20610Y18780D02*
D03*
X17540Y24320D02*
D03*
X12520Y23410D02*
D03*
X18070Y23980D02*
D03*
X14600Y23920D02*
D03*
X8540Y11350D02*
D03*
X17798D02*
D03*
X16530Y21330D02*
D03*
M02*
