G04*
G04 #@! TF.GenerationSoftware,Altium Limited,Altium Designer,18.1.9 (240)*
G04*
G04 Layer_Color=16711935*
%FSLAX24Y24*%
%MOIN*%
G70*
G01*
G75*
%ADD36R,0.1041X0.1041*%
%ADD37C,0.0887*%
%ADD38C,0.0592*%
%ADD39C,0.0671*%
%ADD40R,0.0671X0.0671*%
%ADD41R,0.0671X0.0671*%
%ADD42C,0.0580*%
D36*
X18221Y33603D02*
D03*
Y35697D02*
D03*
X20315Y33603D02*
D03*
Y35697D02*
D03*
D37*
X19268Y34650D02*
D03*
D38*
X18260Y28750D02*
D03*
X17040D02*
D03*
D39*
X14250Y1350D02*
D03*
X15250D02*
D03*
X16250D02*
D03*
X17250D02*
D03*
X18250D02*
D03*
X19250D02*
D03*
X20250D02*
D03*
X21250D02*
D03*
X22250D02*
D03*
X23250D02*
D03*
X35550Y23450D02*
D03*
Y22450D02*
D03*
Y21450D02*
D03*
Y20450D02*
D03*
Y19450D02*
D03*
Y18450D02*
D03*
Y17450D02*
D03*
Y16450D02*
D03*
Y15450D02*
D03*
Y14450D02*
D03*
X36550Y23450D02*
D03*
Y22450D02*
D03*
Y21450D02*
D03*
Y20450D02*
D03*
Y19450D02*
D03*
Y18450D02*
D03*
Y17450D02*
D03*
Y16450D02*
D03*
Y15450D02*
D03*
X1950Y23450D02*
D03*
Y22450D02*
D03*
Y21450D02*
D03*
Y20450D02*
D03*
Y19450D02*
D03*
Y18450D02*
D03*
Y17450D02*
D03*
Y16450D02*
D03*
Y15450D02*
D03*
Y14450D02*
D03*
X2950Y23450D02*
D03*
Y22450D02*
D03*
Y21450D02*
D03*
Y20450D02*
D03*
Y19450D02*
D03*
Y18450D02*
D03*
Y17450D02*
D03*
Y16450D02*
D03*
Y15450D02*
D03*
D40*
X24250Y1350D02*
D03*
D41*
X36550Y14450D02*
D03*
X2950D02*
D03*
D42*
X21950Y34300D02*
D03*
X22700Y36750D02*
D03*
X16350Y34750D02*
D03*
X21650Y17200D02*
D03*
X17710Y17140D02*
D03*
X9650Y25230D02*
D03*
X19748Y14850D02*
D03*
X19725Y15485D02*
D03*
X20060Y18780D02*
D03*
X16430Y17840D02*
D03*
X15450Y20450D02*
D03*
X21150Y17940D02*
D03*
X23540Y19290D02*
D03*
X23800Y21970D02*
D03*
X21680Y18950D02*
D03*
X22400Y18970D02*
D03*
X22835Y17910D02*
D03*
X23150Y17150D02*
D03*
X22060Y20320D02*
D03*
X22740Y21958D02*
D03*
X4750Y23080D02*
D03*
X22740Y22740D02*
D03*
X18410Y21610D02*
D03*
X20389Y21621D02*
D03*
X20192Y20460D02*
D03*
X19674Y21840D02*
D03*
X8220Y14070D02*
D03*
X17220Y19700D02*
D03*
X23110Y26590D02*
D03*
X8740D02*
D03*
X12620D02*
D03*
X19180Y21460D02*
D03*
X10440Y14940D02*
D03*
X9223Y10350D02*
D03*
X24390Y14630D02*
D03*
X13730Y13350D02*
D03*
X23640Y23010D02*
D03*
X22760Y25700D02*
D03*
X21190Y16450D02*
D03*
X6210Y25910D02*
D03*
X24880Y29060D02*
D03*
X20320Y19280D02*
D03*
X32280Y19880D02*
D03*
X20640Y15390D02*
D03*
X14950Y23060D02*
D03*
Y16240D02*
D03*
X18570Y22230D02*
D03*
X20060Y16320D02*
D03*
X25490Y30760D02*
D03*
X13750Y28730D02*
D03*
X26750Y26200D02*
D03*
X22280Y11830D02*
D03*
X27370Y14440D02*
D03*
X19760Y19990D02*
D03*
X11080Y17450D02*
D03*
X17050Y4150D02*
D03*
X21890Y21170D02*
D03*
X18930Y20430D02*
D03*
X26740Y25050D02*
D03*
X18780Y19870D02*
D03*
X17540Y20250D02*
D03*
X6700Y18520D02*
D03*
X14070Y16820D02*
D03*
X20586Y17950D02*
D03*
X18920Y17240D02*
D03*
X26660Y19750D02*
D03*
X20610Y18780D02*
D03*
X17540Y24320D02*
D03*
X12520Y23410D02*
D03*
X18070Y23980D02*
D03*
X14600Y23920D02*
D03*
X8540Y11350D02*
D03*
X17798D02*
D03*
X16530Y21330D02*
D03*
M02*
