M48
;Layer_Color=9474304
;FILE_FORMAT=2:4
INCH,LZ
;TYPE=PLATED
T1F00S00C0.0276
T2F00S00C0.0280
T3F00S00C0.0354
%
T01
X02024Y03195
X02146
T02
X01698Y02059
X01954Y023494
X01831Y02852
X0296Y02884
X02724Y02064
X01429Y02069
X01464Y02115
X01326Y02009
X01528Y02458
X01526Y02865
X013975Y029545
X01225Y02979
X01372Y03372
X01529Y03415
X015245Y03789
X01355Y03769
X01324Y03861
X01365Y03965
X01761Y03996
Y04156
X0171Y04183
X01748Y04271
X01962Y04062
X02053Y04109
X02015Y03927
X01993Y0385
X02104Y03839
X02115Y03769
X02116Y03919
X021762Y038838
X02369Y03882
X02341Y03971
X02276Y04123
X02406Y04303
X0255Y04338
X02661Y04321
X02763Y04219
X02844Y04023
X02302Y03786
X02211Y03627
X02126Y03619
X02041Y03596
X01956Y03635
X01884Y036
X01906Y03478
X01835Y0342
X01719Y03404
X01757Y03314
X01989Y03363
X020083Y03415
X02072Y03363
X02105Y03286
X01977Y03139
X01909Y03736
X01803Y03717
X01777Y038008
X02615Y03473
X02725Y03363
X0272Y03154
X02328Y04535
T03
X01177Y01155
X01277
X01377
X01477
X01577
X01677
X01777
X01877
X01977
X02077
X02177
X0297Y0114
X0307
X0317
X01265Y03485
X01165
Y03585
Y03685
Y03785
Y03885
Y03985
Y04085
Y04185
Y04285
Y04385
X01265
Y04285
Y04185
Y04085
Y03985
Y03885
Y03785
Y03685
Y03585
X0295
Y03685
Y03785
Y03885
Y03985
Y04085
Y04185
Y04285
Y04385
X0305
Y04285
Y04185
Y04085
Y03985
Y03885
Y03785
Y03685
Y03585
Y03485
X0295
M30
