G04*
G04 #@! TF.GenerationSoftware,Altium Limited,Altium Designer,18.1.9 (240)*
G04*
G04 Layer_Color=128*
%FSLAX24Y24*%
%MOIN*%
G70*
G01*
G75*
%ADD48C,0.0020*%
D48*
X21322Y31950D02*
X21598D01*
X21460Y31812D02*
Y32088D01*
X20102Y31950D02*
X20378D01*
X20240Y31812D02*
Y32088D01*
X11593Y11550D02*
X11947D01*
X11770Y11373D02*
Y11727D01*
X12593Y11550D02*
X12947D01*
X12770Y11373D02*
Y11727D01*
X13593Y11550D02*
X13947D01*
X13770Y11373D02*
Y11727D01*
X14593Y11550D02*
X14947D01*
X14770Y11373D02*
Y11727D01*
X15593Y11550D02*
X15947D01*
X15770Y11373D02*
Y11727D01*
X16593Y11550D02*
X16947D01*
X16770Y11373D02*
Y11727D01*
X17593Y11550D02*
X17947D01*
X17770Y11373D02*
Y11727D01*
X18593Y11550D02*
X18947D01*
X18770Y11373D02*
Y11727D01*
X19593Y11550D02*
X19947D01*
X19770Y11373D02*
Y11727D01*
X20593Y11550D02*
X20947D01*
X20770Y11373D02*
Y11727D01*
X21593Y11550D02*
X21947D01*
X21770Y11373D02*
Y11727D01*
X31523Y11400D02*
X31877D01*
X31700Y11223D02*
Y11577D01*
X30523Y11400D02*
X30877D01*
X30700Y11223D02*
Y11577D01*
X29523Y11400D02*
X29877D01*
X29700Y11223D02*
Y11577D01*
X29323Y43850D02*
X29677D01*
X29500Y43673D02*
Y44027D01*
X29323Y42850D02*
X29677D01*
X29500Y42673D02*
Y43027D01*
X29323Y41850D02*
X29677D01*
X29500Y41673D02*
Y42027D01*
X29323Y40850D02*
X29677D01*
X29500Y40673D02*
Y41027D01*
X29323Y39850D02*
X29677D01*
X29500Y39673D02*
Y40027D01*
X29323Y38850D02*
X29677D01*
X29500Y38673D02*
Y39027D01*
X29323Y37850D02*
X29677D01*
X29500Y37673D02*
Y38027D01*
X29323Y36850D02*
X29677D01*
X29500Y36673D02*
Y37027D01*
X29323Y35850D02*
X29677D01*
X29500Y35673D02*
Y36027D01*
X29323Y34850D02*
X29677D01*
X29500Y34673D02*
Y35027D01*
X30323Y43850D02*
X30677D01*
X30500Y43673D02*
Y44027D01*
X30323Y42850D02*
X30677D01*
X30500Y42673D02*
Y43027D01*
X30323Y41850D02*
X30677D01*
X30500Y41673D02*
Y42027D01*
X30323Y40850D02*
X30677D01*
X30500Y40673D02*
Y41027D01*
X30323Y39850D02*
X30677D01*
X30500Y39673D02*
Y40027D01*
X30323Y38850D02*
X30677D01*
X30500Y38673D02*
Y39027D01*
X30323Y37850D02*
X30677D01*
X30500Y37673D02*
Y38027D01*
X30323Y36850D02*
X30677D01*
X30500Y36673D02*
Y37027D01*
X30323Y35850D02*
X30677D01*
X30500Y35673D02*
Y36027D01*
X30323Y34850D02*
X30677D01*
X30500Y34673D02*
Y35027D01*
X11473Y43850D02*
X11827D01*
X11650Y43673D02*
Y44027D01*
X11473Y42850D02*
X11827D01*
X11650Y42673D02*
Y43027D01*
X11473Y41850D02*
X11827D01*
X11650Y41673D02*
Y42027D01*
X11473Y40850D02*
X11827D01*
X11650Y40673D02*
Y41027D01*
X11473Y39850D02*
X11827D01*
X11650Y39673D02*
Y40027D01*
X11473Y38850D02*
X11827D01*
X11650Y38673D02*
Y39027D01*
X11473Y37850D02*
X11827D01*
X11650Y37673D02*
Y38027D01*
X11473Y36850D02*
X11827D01*
X11650Y36673D02*
Y37027D01*
X11473Y35850D02*
X11827D01*
X11650Y35673D02*
Y36027D01*
X11473Y34850D02*
X11827D01*
X11650Y34673D02*
Y35027D01*
X12473Y43850D02*
X12827D01*
X12650Y43673D02*
Y44027D01*
X12473Y42850D02*
X12827D01*
X12650Y42673D02*
Y43027D01*
X12473Y41850D02*
X12827D01*
X12650Y41673D02*
Y42027D01*
X12473Y40850D02*
X12827D01*
X12650Y40673D02*
Y41027D01*
X12473Y39850D02*
X12827D01*
X12650Y39673D02*
Y40027D01*
X12473Y38850D02*
X12827D01*
X12650Y38673D02*
Y39027D01*
X12473Y37850D02*
X12827D01*
X12650Y37673D02*
Y38027D01*
X12473Y36850D02*
X12827D01*
X12650Y36673D02*
Y37027D01*
X12473Y35850D02*
X12827D01*
X12650Y35673D02*
Y36027D01*
X12473Y34850D02*
X12827D01*
X12650Y34673D02*
Y35027D01*
X19790Y38500D02*
X20070D01*
X19930Y38360D02*
Y38640D01*
X18950Y37360D02*
X19230D01*
X19090Y37220D02*
Y37500D01*
X19943Y34150D02*
X20223D01*
X20083Y34010D02*
Y34290D01*
X21010Y37690D02*
X21290D01*
X21150Y37550D02*
Y37830D01*
X18700Y36000D02*
X18980D01*
X18840Y35860D02*
Y36140D01*
X22880Y37860D02*
X23160D01*
X23020Y37720D02*
Y38000D01*
X21020Y39190D02*
X21300D01*
X21160Y39050D02*
Y39330D01*
X13580Y33720D02*
X13860D01*
X13720Y33580D02*
Y33860D01*
X14150Y20690D02*
X14430D01*
X14290Y20550D02*
Y20830D01*
X19400Y23494D02*
X19680D01*
X19540Y23354D02*
Y23634D01*
X13835Y29545D02*
X14115D01*
X13975Y29405D02*
Y29685D01*
X27060Y31540D02*
X27340D01*
X27200Y31400D02*
Y31680D01*
X20580Y33630D02*
X20860D01*
X20720Y33490D02*
Y33770D01*
X27110Y33630D02*
X27390D01*
X27250Y33490D02*
Y33770D01*
X16840Y20590D02*
X17120D01*
X16980Y20450D02*
Y20730D01*
X19750Y33630D02*
X20030D01*
X19890Y33490D02*
Y33770D01*
X15150Y34150D02*
X15430D01*
X15290Y34010D02*
Y34290D01*
X18920Y34780D02*
X19200D01*
X19060Y34640D02*
Y34920D01*
X18170Y28520D02*
X18450D01*
X18310Y28380D02*
Y28660D01*
X18210Y34200D02*
X18490D01*
X18350Y34060D02*
Y34340D01*
X28300Y40230D02*
X28580D01*
X28440Y40090D02*
Y40370D01*
X19630Y31390D02*
X19910D01*
X19770Y31250D02*
Y31530D01*
X23550Y38820D02*
X23830D01*
X23690Y38680D02*
Y38960D01*
X20910Y32860D02*
X21190D01*
X21050Y32720D02*
Y33000D01*
X12110Y29790D02*
X12390D01*
X12250Y29650D02*
Y29930D01*
X17050Y34040D02*
X17330D01*
X17190Y33900D02*
Y34180D01*
X13410Y37690D02*
X13690D01*
X13550Y37550D02*
Y37830D01*
X17630Y38008D02*
X17910D01*
X17770Y37868D02*
Y38148D01*
X16960Y41830D02*
X17240D01*
X17100Y41690D02*
Y41970D01*
X17890Y37170D02*
X18170D01*
X18030Y37030D02*
Y37310D01*
X19420Y36350D02*
X19700D01*
X19560Y36210D02*
Y36490D01*
X20270Y35960D02*
X20550D01*
X20410Y35820D02*
Y36100D01*
X21120Y36190D02*
X21400D01*
X21260Y36050D02*
Y36330D01*
X20900Y38390D02*
X21180D01*
X21040Y38250D02*
Y38530D01*
X23140Y45350D02*
X23420D01*
X23280Y45210D02*
Y45490D01*
X23270Y39710D02*
X23550D01*
X23410Y39570D02*
Y39850D01*
X21622Y38838D02*
X21902D01*
X21762Y38698D02*
Y38978D01*
X22620Y41230D02*
X22900D01*
X22760Y41090D02*
Y41370D01*
X17470Y41560D02*
X17750D01*
X17610Y41420D02*
Y41700D01*
X13100Y38610D02*
X13380D01*
X13240Y38470D02*
Y38750D01*
X17340Y42710D02*
X17620D01*
X17480Y42570D02*
Y42850D01*
X20390Y41090D02*
X20670D01*
X20530Y40950D02*
Y41230D01*
X15105Y37890D02*
X15385D01*
X15245Y37750D02*
Y38030D01*
X13510Y39650D02*
X13790D01*
X13650Y39510D02*
Y39790D01*
X20010Y39270D02*
X20290D01*
X20150Y39130D02*
Y39410D01*
X15120Y28650D02*
X15400D01*
X15260Y28510D02*
Y28790D01*
X17430Y33140D02*
X17710D01*
X17570Y33000D02*
Y33280D01*
X13120Y20090D02*
X13400D01*
X13260Y19950D02*
Y20230D01*
X14500Y21150D02*
X14780D01*
X14640Y21010D02*
Y21290D01*
X17470Y39960D02*
X17750D01*
X17610Y39820D02*
Y40100D01*
X27100Y20640D02*
X27380D01*
X27240Y20500D02*
Y20780D01*
X29460Y28840D02*
X29740D01*
X29600Y28700D02*
Y28980D01*
X26470Y43210D02*
X26750D01*
X26610Y43070D02*
Y43350D01*
X27490Y42190D02*
X27770D01*
X27630Y42050D02*
Y42330D01*
X23920Y43030D02*
X24200D01*
X24060Y42890D02*
Y43170D01*
X15140Y24580D02*
X15420D01*
X15280Y24440D02*
Y24720D01*
X26010Y34730D02*
X26290D01*
X26150Y34590D02*
Y34870D01*
X21970Y36270D02*
X22250D01*
X22110Y36130D02*
Y36410D01*
X25360Y43380D02*
X25640D01*
X25500Y43240D02*
Y43520D01*
X19480Y40620D02*
X19760D01*
X19620Y40480D02*
Y40760D01*
M02*
